<?xml version="1.0" standalone="no"?>
<!DOCTYPE svg PUBLIC "-//W3C//DTD SVG 20010904//EN"
 "http://www.w3.org/TR/2001/REC-SVG-20010904/DTD/svg10.dtd">
<svg version="1.0" xmlns="http://www.w3.org/2000/svg"
 width="151.000000pt" height="151.000000pt" viewBox="0 0 151.000000 151.000000"
 preserveAspectRatio="xMidYMid meet">
<metadata>
Created by potrace 1.11, written by Peter Selinger 2001-2013
</metadata>
<g transform="translate(0.000000,151.000000) scale(0.100000,-0.100000)"
fill="#000000" stroke="none">
<path d="M662 1469 c-67 -26 -168 -119 -232 -214 -145 -216 -254 -558 -236
-748 18 -195 137 -366 312 -449 261 -123 582 -38 732 194 111 172 117 365 20
653 -119 353 -319 587 -501 584 -23 0 -66 -9 -95 -20z m-201 -822 c265 -77
559 -51 802 71 4 2 7 -3 7 -12 0 -21 -80 -60 -183 -90 -168 -49 -376 -57 -542
-22 -139 29 -295 98 -295 130 0 10 19 4 63 -19 34 -19 101 -45 148 -58z m-132
-67 c40 -18 117 -43 170 -57 87 -24 114 -26 291 -26 229 -1 285 10 488 100 9
4 12 -10 12 -51 0 -31 -3 -56 -7 -56 -5 0 -36 7 -70 15 -34 8 -69 12 -77 9 -8
-3 -33 -32 -56 -65 -23 -32 -48 -59 -56 -59 -8 0 -41 14 -74 30 l-60 30 -38
-19 c-20 -11 -50 -29 -67 -40 -44 -30 -62 -26 -116 24 -27 25 -58 45 -70 45
-13 0 -53 -10 -91 -22 -79 -26 -82 -24 -127 59 -28 52 -44 57 -118 39 l-33 -8
0 47 c0 34 4 46 13 42 6 -3 45 -20 86 -37z m-41 -143 c6 -7 14 -32 18 -55 10
-61 25 -70 84 -49 69 25 85 22 110 -18 11 -19 35 -46 52 -60 35 -30 51 -27
117 18 44 30 44 30 75 12 119 -71 136 -71 188 1 21 29 38 43 48 40 8 -2 41
-15 73 -27 53 -20 59 -21 75 -6 10 9 24 33 31 54 24 69 35 80 75 75 40 -5 42
-9 22 -55 -24 -58 -162 -132 -315 -169 -72 -17 -108 -19 -216 -15 -152 5 -244
30 -365 99 -76 44 -98 71 -114 141 -5 22 -3 27 13 27 10 0 23 -6 29 -13z"/>
</g>
</svg>
